<svg xmlns="http://www.w3.org/2000/svg" viewBox="0 0 100 100"><defs><style>.cls-1{fill:#236cdb;}</style></defs><title>GERA</title><g id="OBJECTS"><path class="cls-1" d="M50,15.57a8.83,8.83,0,0,1,8.83,8.83V41.17H75.6a8.83,8.83,0,1,1,0,17.66H58.83V75.6a8.83,8.83,0,1,1-17.66,0V58.83H24.4a8.83,8.83,0,0,1,0-17.66H41.17V24.4A8.83,8.83,0,0,1,50,15.57m0-9.5A18.35,18.35,0,0,0,31.67,24.4v7.27H24.4a18.33,18.33,0,0,0,0,36.66h7.27V75.6a18.33,18.33,0,1,0,36.66,0V68.33H75.6a18.33,18.33,0,1,0,0-36.66H68.33V24.4A18.35,18.35,0,0,0,50,6.07Z"/></g></svg>