<svg xmlns="http://www.w3.org/2000/svg" viewBox="0 0 500 300"><defs><style>.cls-1{fill:#00eab4;}.cls-2{fill:#d8e4ff;}.cls-3{fill:#98baf4;}.cls-4{fill:#236cdb;}</style></defs><title>GERA</title><g id="OBJECTS"><path class="cls-1" d="M252.22,49.61,222.55,56a2.6,2.6,0,0,0-1.27,4.4l5,4.86a2.6,2.6,0,0,1,0,3.68l-54.91,56a2.6,2.6,0,0,1-3.68,0l-16.83-16.52a2.6,2.6,0,0,0-3.68,0L87.53,170.28a2.6,2.6,0,0,0,0,3.68l6.52,6.39a2.6,2.6,0,0,0,3.68,0l49.61-51.58a2.6,2.6,0,0,1,3.68,0l16.83,16.51a2.6,2.6,0,0,0,3.68,0L236.51,79a2.6,2.6,0,0,1,3.68,0l5,4.86a2.6,2.6,0,0,0,4.37-1.36l5.8-29.77A2.61,2.61,0,0,0,252.22,49.61Z"/><path class="cls-2" d="M118.77,104.8a1.53,1.53,0,0,1,1.53,1.53v2.9h2.91a1.53,1.53,0,0,1,0,3.06H120.3v2.91a1.53,1.53,0,0,1-3.06,0v-2.91h-2.91a1.53,1.53,0,0,1,0-3.06h2.91v-2.9a1.52,1.52,0,0,1,1.53-1.53m0-1.65a3.18,3.18,0,0,0-3.18,3.18v1.26h-1.26a3.18,3.18,0,1,0,0,6.35h1.26v1.26a3.18,3.18,0,0,0,6.36,0v-1.26h1.26a3.18,3.18,0,0,0,0-6.35H122v-1.26a3.18,3.18,0,0,0-3.18-3.18Z"/><path class="cls-2" d="M384.61,92.16a1.52,1.52,0,0,1,1.53,1.53V96.6h2.91a1.53,1.53,0,0,1,0,3.06h-2.91v2.9a1.53,1.53,0,1,1-3.06,0v-2.9h-2.91a1.53,1.53,0,0,1,0-3.06h2.91V93.69a1.52,1.52,0,0,1,1.53-1.53m0-1.65a3.19,3.19,0,0,0-3.18,3.18V95h-1.26a3.18,3.18,0,0,0,0,6.35h1.26v1.26a3.18,3.18,0,0,0,6.36,0V101.3h1.26a3.18,3.18,0,0,0,0-6.35h-1.26V93.69a3.19,3.19,0,0,0-3.18-3.18Z"/><path class="cls-2" d="M238.48,98.13a1.73,1.73,0,0,1,1.73,1.72v3.27h3.27a1.73,1.73,0,0,1,0,3.45h-3.27v3.27a1.73,1.73,0,0,1-3.45,0v-3.27h-3.27a1.73,1.73,0,1,1,0-3.45h3.27V99.85a1.72,1.72,0,0,1,1.72-1.72m0-1.86a3.58,3.58,0,0,0-3.57,3.58v1.42h-1.42a3.58,3.58,0,1,0,0,7.15h1.42v1.42a3.58,3.58,0,1,0,7.15,0v-1.42h1.42a3.58,3.58,0,1,0,0-7.15h-1.42V99.85a3.58,3.58,0,0,0-3.58-3.58Z"/><path class="cls-2" d="M240.9,42.22a4.8,4.8,0,1,1,4.8-4.8A4.8,4.8,0,0,1,240.9,42.22Zm0-8a3.16,3.16,0,1,0,3.15,3.16A3.16,3.16,0,0,0,240.9,34.26Z"/><path class="cls-2" d="M357.62,119.28a5.41,5.41,0,1,1,5.41-5.41A5.41,5.41,0,0,1,357.62,119.28Zm0-9a3.56,3.56,0,1,0,3.56,3.55A3.56,3.56,0,0,0,357.62,110.32Z"/><path class="cls-2" d="M148.82,75a3.24,3.24,0,1,1,3.24-3.24A3.25,3.25,0,0,1,148.82,75Zm0-4.83a1.59,1.59,0,1,0,1.59,1.59A1.59,1.59,0,0,0,148.82,70.21Z"/><path class="cls-2" d="M295.79,87.42A4.38,4.38,0,1,1,300.16,83,4.38,4.38,0,0,1,295.79,87.42Zm0-6.53A2.15,2.15,0,1,0,297.94,83,2.15,2.15,0,0,0,295.79,80.89Z"/><path class="cls-2" d="M305,47.89A2.07,2.07,0,0,1,307,50v3.93H311A2.07,2.07,0,1,1,311,58H307V62a2.07,2.07,0,0,1-4.14,0V58H299a2.07,2.07,0,1,1,0-4.13h3.93V50A2.07,2.07,0,0,1,305,47.89m0-2.23a4.31,4.31,0,0,0-4.3,4.3v1.7H299a4.3,4.3,0,1,0,0,8.59h1.7V62a4.3,4.3,0,0,0,8.59,0V60.25H311a4.3,4.3,0,0,0,0-8.59h-1.71V50a4.3,4.3,0,0,0-4.29-4.3Z"/><path class="cls-2" d="M182.2,65a3.2,3.2,0,0,1,3.2,3.2v6.08h6.08a3.2,3.2,0,1,1,0,6.4H185.4v6.08a3.2,3.2,0,1,1-6.4,0V80.67h-6.09a3.2,3.2,0,1,1,0-6.4H179V68.19a3.2,3.2,0,0,1,3.2-3.2m0-3.45a6.65,6.65,0,0,0-6.65,6.65v2.64h-2.64a6.65,6.65,0,0,0,0,13.29h2.64v2.63a6.65,6.65,0,1,0,13.29,0V84.12h2.64a6.65,6.65,0,1,0,0-13.29h-2.64V68.19a6.65,6.65,0,0,0-6.64-6.65Z"/><path class="cls-2" d="M322.62,93.63a2.73,2.73,0,0,1,2.73,2.73v5.19h5.2a2.74,2.74,0,0,1,0,5.47h-5.2v5.2a2.74,2.74,0,0,1-5.47,0V107h-5.19a2.74,2.74,0,1,1,0-5.47h5.19V96.36a2.74,2.74,0,0,1,2.74-2.73m0-2.95a5.69,5.69,0,0,0-5.68,5.68v2.25h-2.25a5.68,5.68,0,1,0,0,11.35h2.25v2.26a5.68,5.68,0,0,0,11.35,0V110h2.26a5.68,5.68,0,0,0,0-11.35h-2.26V96.36a5.68,5.68,0,0,0-5.67-5.68Z"/><path class="cls-3" d="M92.58,261.76a7.19,7.19,0,0,1-.3-1.92,5.37,5.37,0,0,1-2,1.61,6.32,6.32,0,0,1-2.62.56,4.64,4.64,0,0,1-3.2-1.1,3.62,3.62,0,0,1-1.22-2.79A3.68,3.68,0,0,1,84.88,255a8,8,0,0,1,4.64-1.16h2.75v-1.56a3,3,0,0,0-.9-2.32,3.78,3.78,0,0,0-2.65-.84,4.14,4.14,0,0,0-2.62.81,2.42,2.42,0,0,0-1,2H83.54A3.53,3.53,0,0,1,85.06,249a5.86,5.86,0,0,1,3.74-1.2,5.31,5.31,0,0,1,3.62,1.15,4.13,4.13,0,0,1,1.36,3.2v6.49a8,8,0,0,0,.42,3v.16Zm-4.77-1.09a5.09,5.09,0,0,0,2.72-.74,4.28,4.28,0,0,0,1.74-2v-3H89.56a6.82,6.82,0,0,0-3.55.83,2.56,2.56,0,0,0-.42,4.13A3.25,3.25,0,0,0,87.81,260.67Z"/><path class="cls-3" d="M102.89,260.73a4,4,0,0,0,2.66-.89,3.13,3.13,0,0,0,1.15-2.32h1.46a4.28,4.28,0,0,1-.78,2.29,5.05,5.05,0,0,1-1.92,1.62,5.93,5.93,0,0,1-2.57.58,5.32,5.32,0,0,1-4.28-1.88,7.58,7.58,0,0,1-1.57-5v-.46a8.44,8.44,0,0,1,.71-3.58,5.48,5.48,0,0,1,2-2.41,5.65,5.65,0,0,1,3.1-.85,5.29,5.29,0,0,1,3.72,1.35,4.91,4.91,0,0,1,1.56,3.53H106.7a3.72,3.72,0,0,0-1.15-2.6,4.13,4.13,0,0,0-5.86.5,6.74,6.74,0,0,0-1.13,4.15v.45a6.59,6.59,0,0,0,1.13,4.09A3.81,3.81,0,0,0,102.89,260.73Zm.42,1.14-.15.81c1.39.18,2.09.9,2.09,2.17a2.16,2.16,0,0,1-1,1.85,4.84,4.84,0,0,1-2.73.68l-.09-1a3.62,3.62,0,0,0,1.85-.41,1.24,1.24,0,0,0,.71-1.11,1,1,0,0,0-.55-1,4.85,4.85,0,0,0-1.68-.38l.37-1.61Z"/><path class="cls-3" d="M110.35,254.7a8.06,8.06,0,0,1,.77-3.56,5.81,5.81,0,0,1,2.17-2.47,5.88,5.88,0,0,1,3.17-.88,5.65,5.65,0,0,1,4.44,1.92,7.41,7.41,0,0,1,1.69,5.09v.32a8.17,8.17,0,0,1-.76,3.58,5.74,5.74,0,0,1-2.16,2.45,6,6,0,0,1-3.18.86,5.63,5.63,0,0,1-4.43-1.92,7.37,7.37,0,0,1-1.71-5.09Zm1.52.42a6.22,6.22,0,0,0,1.28,4,4.3,4.3,0,0,0,6.66,0,6.42,6.42,0,0,0,1.28-4.16v-.29a7,7,0,0,0-.59-2.88,4.64,4.64,0,0,0-1.63-2,4.15,4.15,0,0,0-2.41-.72,4.07,4.07,0,0,0-3.31,1.59,6.47,6.47,0,0,0-1.28,4.17Zm8.9-12.27a2.67,2.67,0,0,1-.72,2,2.34,2.34,0,0,1-1.75.74,3.11,3.11,0,0,1-1.88-.7,2.9,2.9,0,0,0-1.64-.7,1.35,1.35,0,0,0-1,.4,1.48,1.48,0,0,0-.4,1.1l-1.14,0a2.76,2.76,0,0,1,.69-1.92,2.32,2.32,0,0,1,1.78-.75,2.35,2.35,0,0,1,1,.21,7.86,7.86,0,0,1,.81.48,8.09,8.09,0,0,0,.77.48,1.78,1.78,0,0,0,.91.22,1.34,1.34,0,0,0,1-.42,1.55,1.55,0,0,0,.41-1.13Z"/><path class="cls-3" d="M131,262a5.88,5.88,0,0,1-5.36-3.26,7.56,7.56,0,0,1-.78-3.46v-.54a8.05,8.05,0,0,1,.76-3.56,6.14,6.14,0,0,1,2.14-2.49,5.21,5.21,0,0,1,3-.91,4.93,4.93,0,0,1,4,1.71,6.86,6.86,0,0,1,1.47,4.65V255H126.4v.29a5.76,5.76,0,0,0,1.33,3.89,4.28,4.28,0,0,0,3.37,1.55,5,5,0,0,0,2.14-.44,4.79,4.79,0,0,0,1.7-1.42l.95.72A5.56,5.56,0,0,1,131,262Zm-.28-12.93a3.78,3.78,0,0,0-2.88,1.26,5.82,5.82,0,0,0-1.42,3.37h8.22v-.17a5,5,0,0,0-1.13-3.21A3.5,3.5,0,0,0,130.75,249.08Z"/><path class="cls-3" d="M147.34,258.27a2.17,2.17,0,0,0-.9-1.81,7,7,0,0,0-2.74-1.07,12.17,12.17,0,0,1-2.83-.89,3.71,3.71,0,0,1-1.49-1.22,3,3,0,0,1-.49-1.75,3.26,3.26,0,0,1,1.36-2.68,5.44,5.44,0,0,1,3.47-1.06,5.62,5.62,0,0,1,3.68,1.14,3.64,3.64,0,0,1,1.39,2.95h-1.52a2.46,2.46,0,0,0-1-2,4.53,4.53,0,0,0-4.94-.13,2,2,0,0,0-.91,1.73,1.88,1.88,0,0,0,.75,1.59,7.92,7.92,0,0,0,2.75,1,13,13,0,0,1,3,1,3.86,3.86,0,0,1,1.48,1.28,3.53,3.53,0,0,1-.92,4.59,6,6,0,0,1-3.65,1,6.17,6.17,0,0,1-3.89-1.16,3.57,3.57,0,0,1-1.49-2.93H140a2.66,2.66,0,0,0,1.13,2.07,4.58,4.58,0,0,0,2.73.74,4.3,4.3,0,0,0,2.56-.7A2.08,2.08,0,0,0,147.34,258.27Z"/><path class="cls-3" d="M160.09,250.36a5.43,5.43,0,0,1,1.91-1.9,5.11,5.11,0,0,1,2.55-.67,4.14,4.14,0,0,1,3.28,1.24,5.61,5.61,0,0,1,1.09,3.73v9h-1.51v-9a4.2,4.2,0,0,0-.78-2.74,3.05,3.05,0,0,0-2.45-.9,3.81,3.81,0,0,0-2.49.88,5.14,5.14,0,0,0-1.6,2.38v9.39h-1.51V242.29h1.51Z"/><path class="cls-3" d="M172,254.7a8.05,8.05,0,0,1,.76-3.56,5.76,5.76,0,0,1,5.34-3.35,5.64,5.64,0,0,1,4.44,1.92,7.42,7.42,0,0,1,1.7,5.09v.32a8.18,8.18,0,0,1-.77,3.58,5.74,5.74,0,0,1-2.16,2.45,6,6,0,0,1-3.18.86,5.65,5.65,0,0,1-4.43-1.92A7.37,7.37,0,0,1,172,255Zm1.52.42a6.21,6.21,0,0,0,1.27,4,4.31,4.31,0,0,0,6.67,0,6.47,6.47,0,0,0,1.27-4.16v-.29a7.12,7.12,0,0,0-.58-2.88,4.73,4.73,0,0,0-1.64-2,4.15,4.15,0,0,0-2.41-.72,4,4,0,0,0-3.3,1.59,6.41,6.41,0,0,0-1.28,4.17Z"/><path class="cls-3" d="M189,248.05v15.34a4.15,4.15,0,0,1-.91,2.9,3.44,3.44,0,0,1-2.69,1,3.81,3.81,0,0,1-1.33-.24l0-1.24a4,4,0,0,0,1.14.17c1.5,0,2.25-.87,2.25-2.6V248.05Zm-.75-5a1,1,0,0,1,.78.29,1.05,1.05,0,0,1,.28.73,1,1,0,0,1-.28.71,1,1,0,0,1-.78.29,1,1,0,0,1-.75-.29,1,1,0,0,1-.27-.71,1,1,0,0,1,.27-.73A1,1,0,0,1,188.24,243.07Z"/><path class="cls-3" d="M198.58,262a5.88,5.88,0,0,1-5.36-3.26,7.56,7.56,0,0,1-.78-3.46v-.54a8.05,8.05,0,0,1,.76-3.56,6.14,6.14,0,0,1,2.14-2.49,5.21,5.21,0,0,1,3-.91,4.93,4.93,0,0,1,4,1.71,6.86,6.86,0,0,1,1.47,4.65V255H194v.29a5.76,5.76,0,0,0,1.33,3.89,4.28,4.28,0,0,0,3.37,1.55,5,5,0,0,0,2.14-.44,4.79,4.79,0,0,0,1.7-1.42l.95.72A5.56,5.56,0,0,1,198.58,262Zm-.28-12.93a3.78,3.78,0,0,0-2.88,1.26,5.82,5.82,0,0,0-1.42,3.37h8.22v-.17a5,5,0,0,0-1.13-3.21A3.5,3.5,0,0,0,198.3,249.08Z"/><path class="cls-3" d="M206.36,265.2l-.9-.66a5.55,5.55,0,0,0,1.2-3.2v-2h1.48V261A5.43,5.43,0,0,1,206.36,265.2Z"/><path class="cls-3" d="M217.35,254.77a8.21,8.21,0,0,1,1.43-5.1,4.61,4.61,0,0,1,3.87-1.88A4.75,4.75,0,0,1,226.9,250l.08-2h1.42v13.43a5.84,5.84,0,0,1-1.48,4.19,5.32,5.32,0,0,1-4,1.55,6.18,6.18,0,0,1-2.73-.64,5.34,5.34,0,0,1-2-1.71L219,264a4.8,4.8,0,0,0,3.83,2,3.9,3.9,0,0,0,3-1.12,4.51,4.51,0,0,0,1.11-3.12V260a4.92,4.92,0,0,1-4.25,2,4.58,4.58,0,0,1-3.83-1.9,8.31,8.31,0,0,1-1.44-5.13Zm1.53.27a7.17,7.17,0,0,0,1.05,4.14,3.41,3.41,0,0,0,3,1.51,4.06,4.06,0,0,0,4-2.51v-6.37a4.35,4.35,0,0,0-1.54-2,4.12,4.12,0,0,0-2.41-.69,3.44,3.44,0,0,0-3,1.5A7.64,7.64,0,0,0,218.88,255Z"/><path class="cls-3" d="M237.66,262a5.88,5.88,0,0,1-5.36-3.26,7.56,7.56,0,0,1-.78-3.46v-.54a8.05,8.05,0,0,1,.76-3.56,6.07,6.07,0,0,1,2.14-2.49,5.21,5.21,0,0,1,3-.91,4.93,4.93,0,0,1,4,1.71,6.86,6.86,0,0,1,1.47,4.65V255H233v.29a5.76,5.76,0,0,0,1.34,3.89,4.26,4.26,0,0,0,3.36,1.55,5,5,0,0,0,2.15-.44,4.76,4.76,0,0,0,1.69-1.42l.95.72A5.53,5.53,0,0,1,237.66,262Zm-.28-12.93a3.78,3.78,0,0,0-2.88,1.26,5.83,5.83,0,0,0-1.43,3.37h8.23v-.17a5,5,0,0,0-1.13-3.21A3.5,3.5,0,0,0,237.38,249.08Z"/><path class="cls-3" d="M252.09,249.34a5.53,5.53,0,0,0-1-.09,3.67,3.67,0,0,0-2.4.79,4.34,4.34,0,0,0-1.4,2.3v9.42h-1.51V248.05h1.48l0,2.17a4,4,0,0,1,3.86-2.43,2.47,2.47,0,0,1,1,.17Z"/><path class="cls-3" d="M262.64,261.76a6.87,6.87,0,0,1-.29-1.92,5.4,5.4,0,0,1-2,1.61,6.29,6.29,0,0,1-2.62.56,4.6,4.6,0,0,1-3.19-1.1,3.6,3.6,0,0,1-1.23-2.79,3.68,3.68,0,0,1,1.67-3.17,8,8,0,0,1,4.64-1.16h2.75v-1.56a3,3,0,0,0-.9-2.32,3.78,3.78,0,0,0-2.65-.84,4.14,4.14,0,0,0-2.62.81,2.42,2.42,0,0,0-1,2H253.6a3.53,3.53,0,0,1,1.52-2.83,5.86,5.86,0,0,1,3.74-1.2,5.31,5.31,0,0,1,3.62,1.15,4.13,4.13,0,0,1,1.36,3.2v6.49a8,8,0,0,0,.42,3v.16Zm-4.77-1.09a5.09,5.09,0,0,0,2.72-.74,4.28,4.28,0,0,0,1.74-2v-3h-2.71a6.82,6.82,0,0,0-3.55.83,2.56,2.56,0,0,0-.42,4.13A3.25,3.25,0,0,0,257.87,260.67Z"/><path class="cls-3" d="M273,260.73a4,4,0,0,0,2.66-.89,3.13,3.13,0,0,0,1.15-2.32h1.46a4.28,4.28,0,0,1-.78,2.29,4.91,4.91,0,0,1-1.92,1.62A5.93,5.93,0,0,1,273,262a5.32,5.32,0,0,1-4.28-1.88,7.58,7.58,0,0,1-1.57-5v-.46a8.44,8.44,0,0,1,.71-3.58,5.48,5.48,0,0,1,2-2.41,5.67,5.67,0,0,1,3.1-.85,5.29,5.29,0,0,1,3.72,1.35,4.91,4.91,0,0,1,1.56,3.53h-1.46a3.72,3.72,0,0,0-1.15-2.6,4.13,4.13,0,0,0-5.86.5,6.74,6.74,0,0,0-1.13,4.15v.45a6.59,6.59,0,0,0,1.13,4.09A3.81,3.81,0,0,0,273,260.73Zm.42,1.14-.15.81c1.39.18,2.09.9,2.09,2.17a2.16,2.16,0,0,1-1,1.85,4.84,4.84,0,0,1-2.73.68l-.09-1a3.62,3.62,0,0,0,1.85-.41,1.24,1.24,0,0,0,.71-1.11,1,1,0,0,0-.55-1,4.79,4.79,0,0,0-1.68-.38l.37-1.61Z"/><path class="cls-3" d="M280.41,254.7a8.06,8.06,0,0,1,.77-3.56,5.81,5.81,0,0,1,2.17-2.47,5.88,5.88,0,0,1,3.17-.88,5.65,5.65,0,0,1,4.44,1.92,7.41,7.41,0,0,1,1.69,5.09v.32a8.17,8.17,0,0,1-.76,3.58,5.74,5.74,0,0,1-2.16,2.45,6,6,0,0,1-3.18.86,5.63,5.63,0,0,1-4.43-1.92,7.37,7.37,0,0,1-1.71-5.09Zm1.52.42a6.22,6.22,0,0,0,1.28,4,4.3,4.3,0,0,0,6.66,0,6.42,6.42,0,0,0,1.28-4.16v-.29a7,7,0,0,0-.59-2.88,4.64,4.64,0,0,0-1.63-2,4.15,4.15,0,0,0-2.41-.72,4.07,4.07,0,0,0-3.31,1.59,6.47,6.47,0,0,0-1.28,4.17Zm8.9-12.27a2.67,2.67,0,0,1-.72,2,2.34,2.34,0,0,1-1.75.74,3.11,3.11,0,0,1-1.88-.7,2.9,2.9,0,0,0-1.64-.7,1.35,1.35,0,0,0-1,.4,1.48,1.48,0,0,0-.4,1.1l-1.14,0a2.76,2.76,0,0,1,.69-1.92,2.55,2.55,0,0,1,2.82-.54,7.86,7.86,0,0,1,.81.48,8.09,8.09,0,0,0,.77.48,1.78,1.78,0,0,0,.91.22,1.34,1.34,0,0,0,1-.42,1.55,1.55,0,0,0,.41-1.13Z"/><path class="cls-3" d="M301.09,262a5.88,5.88,0,0,1-5.36-3.26,7.56,7.56,0,0,1-.78-3.46v-.54a8.05,8.05,0,0,1,.76-3.56,6.14,6.14,0,0,1,2.14-2.49,5.21,5.21,0,0,1,3-.91,4.93,4.93,0,0,1,4,1.71,6.86,6.86,0,0,1,1.47,4.65V255h-9.78v.29a5.76,5.76,0,0,0,1.33,3.89,4.28,4.28,0,0,0,3.37,1.55,5,5,0,0,0,2.14-.44,4.79,4.79,0,0,0,1.7-1.42l.95.72A5.56,5.56,0,0,1,301.09,262Zm-.28-12.93a3.78,3.78,0,0,0-2.88,1.26,5.82,5.82,0,0,0-1.42,3.37h8.22v-.17a5,5,0,0,0-1.13-3.21A3.5,3.5,0,0,0,300.81,249.08Z"/><path class="cls-3" d="M317.4,258.27a2.17,2.17,0,0,0-.9-1.81,7,7,0,0,0-2.74-1.07,12.17,12.17,0,0,1-2.83-.89,3.71,3.71,0,0,1-1.49-1.22,3,3,0,0,1-.49-1.75,3.26,3.26,0,0,1,1.36-2.68,5.44,5.44,0,0,1,3.47-1.06,5.62,5.62,0,0,1,3.68,1.14,3.64,3.64,0,0,1,1.39,2.95h-1.52a2.46,2.46,0,0,0-1-2,4.53,4.53,0,0,0-4.94-.13,2,2,0,0,0-.91,1.73,1.88,1.88,0,0,0,.75,1.59,7.92,7.92,0,0,0,2.75,1,13,13,0,0,1,3,1,3.86,3.86,0,0,1,1.48,1.28,3.3,3.3,0,0,1,.48,1.81,3.27,3.27,0,0,1-1.4,2.78,6,6,0,0,1-3.65,1,6.19,6.19,0,0,1-3.89-1.16,3.57,3.57,0,0,1-1.49-2.93H310a2.66,2.66,0,0,0,1.13,2.07,4.58,4.58,0,0,0,2.73.74,4.28,4.28,0,0,0,2.56-.7A2.08,2.08,0,0,0,317.4,258.27Z"/><path class="cls-3" d="M337.3,261.76a7.19,7.19,0,0,1-.3-1.92,5.37,5.37,0,0,1-2,1.61,6.32,6.32,0,0,1-2.62.56,4.64,4.64,0,0,1-3.2-1.1,3.62,3.62,0,0,1-1.22-2.79A3.68,3.68,0,0,1,329.6,255a8,8,0,0,1,4.64-1.16H337v-1.56a3,3,0,0,0-.9-2.32,3.78,3.78,0,0,0-2.65-.84,4.14,4.14,0,0,0-2.62.81,2.42,2.42,0,0,0-1,2h-1.52a3.53,3.53,0,0,1,1.52-2.83,5.86,5.86,0,0,1,3.74-1.2,5.33,5.33,0,0,1,3.62,1.15,4.13,4.13,0,0,1,1.36,3.2v6.49a8,8,0,0,0,.42,3v.16Zm-4.77-1.09a5.11,5.11,0,0,0,2.72-.74,4.28,4.28,0,0,0,1.74-2v-3h-2.71a6.82,6.82,0,0,0-3.55.83,2.56,2.56,0,0,0-.42,4.13A3.25,3.25,0,0,0,332.53,260.67Z"/><path class="cls-3" d="M343.92,248.05l.05,2.23a5.15,5.15,0,0,1,1.9-1.87,5.28,5.28,0,0,1,2.54-.62q3.24,0,4.12,2.66a5.15,5.15,0,0,1,2-2,5.44,5.44,0,0,1,2.71-.69q4.41,0,4.5,4.82v9.15h-1.52v-9a4.09,4.09,0,0,0-.79-2.72,3.23,3.23,0,0,0-2.54-.89,4.08,4.08,0,0,0-2.77,1.06,3.71,3.71,0,0,0-1.25,2.51v9.08h-1.52v-9.15a3.78,3.78,0,0,0-.83-2.63,3.29,3.29,0,0,0-2.52-.87,3.78,3.78,0,0,0-2.45.82,4.73,4.73,0,0,0-1.52,2.42v9.41h-1.52V248.05Z"/><path class="cls-3" d="M374.19,261.76a7.7,7.7,0,0,1-.29-1.92,5.37,5.37,0,0,1-2,1.61,6.32,6.32,0,0,1-2.62.56,4.62,4.62,0,0,1-3.2-1.1,3.62,3.62,0,0,1-1.22-2.79A3.68,3.68,0,0,1,366.5,255a8,8,0,0,1,4.64-1.16h2.75v-1.56a3,3,0,0,0-.91-2.32,3.74,3.74,0,0,0-2.64-.84,4.14,4.14,0,0,0-2.62.81,2.42,2.42,0,0,0-1,2h-1.52a3.53,3.53,0,0,1,1.52-2.83,5.84,5.84,0,0,1,3.74-1.2,5.33,5.33,0,0,1,3.62,1.15,4.13,4.13,0,0,1,1.36,3.2v6.49a8,8,0,0,0,.42,3v.16Zm-4.76-1.09a5.11,5.11,0,0,0,2.72-.74,4.28,4.28,0,0,0,1.74-2v-3h-2.71a6.8,6.8,0,0,0-3.55.83,2.56,2.56,0,0,0-.42,4.13A3.25,3.25,0,0,0,369.43,260.67Z"/><path class="cls-3" d="M380.88,248.05l.06,2.34a5.38,5.38,0,0,1,1.92-1.93,5,5,0,0,1,2.55-.67,4.14,4.14,0,0,1,3.28,1.24,5.61,5.61,0,0,1,1.09,3.73v9h-1.51v-9a4.2,4.2,0,0,0-.78-2.74,3.05,3.05,0,0,0-2.45-.9,3.81,3.81,0,0,0-2.49.88,5.14,5.14,0,0,0-1.6,2.38v9.39h-1.51V248.05Z"/><path class="cls-3" d="M395.2,250.36a5.45,5.45,0,0,1,1.92-1.9,5,5,0,0,1,2.54-.67A4.16,4.16,0,0,1,403,249a5.61,5.61,0,0,1,1.08,3.73v9h-1.5v-9a4.2,4.2,0,0,0-.78-2.74,3.05,3.05,0,0,0-2.45-.9,3.81,3.81,0,0,0-2.49.88,5.15,5.15,0,0,0-1.61,2.38v9.39h-1.5V242.29h1.5Z"/><path class="cls-3" d="M416.59,261.76a7.26,7.26,0,0,1-.29-1.92,5.37,5.37,0,0,1-2,1.61,6.36,6.36,0,0,1-2.62.56,4.62,4.62,0,0,1-3.2-1.1,3.62,3.62,0,0,1-1.22-2.79,3.67,3.67,0,0,1,1.66-3.17,8,8,0,0,1,4.65-1.16h2.75v-1.56a3,3,0,0,0-.91-2.32,3.74,3.74,0,0,0-2.64-.84,4.12,4.12,0,0,0-2.62.81,2.39,2.39,0,0,0-1,2h-1.52a3.51,3.51,0,0,1,1.52-2.83,5.84,5.84,0,0,1,3.74-1.2,5.3,5.3,0,0,1,3.61,1.15,4.1,4.1,0,0,1,1.37,3.2v6.49a8.25,8.25,0,0,0,.41,3v.16Zm-4.76-1.09a5.11,5.11,0,0,0,2.72-.74,4.39,4.39,0,0,0,1.74-2v-3h-2.71a6.77,6.77,0,0,0-3.55.83,2.57,2.57,0,0,0-.43,4.13A3.28,3.28,0,0,0,411.83,260.67Zm5.79-17.83a2.7,2.7,0,0,1-.72,1.95,2.33,2.33,0,0,1-1.75.73,3.1,3.1,0,0,1-1.88-.69,2.83,2.83,0,0,0-1.65-.7,1.37,1.37,0,0,0-1,.39,1.47,1.47,0,0,0-.4,1.11l-1.14,0a2.72,2.72,0,0,1,.69-1.92,2.31,2.31,0,0,1,1.78-.76,2.22,2.22,0,0,1,1,.22,5.4,5.4,0,0,1,.81.48,7,7,0,0,0,.77.48,1.77,1.77,0,0,0,.9.22,1.36,1.36,0,0,0,1-.42,1.57,1.57,0,0,0,.41-1.13Z"/><path class="cls-4" d="M107.36,149.78q5.3-7.6,15.43-7.61,8,0,12.49,3.84t5.87,12.12h19.34Q158.71,142.5,149,134.32t-26.83-8.19a40.48,40.48,0,0,0-21.5,5.6,35.93,35.93,0,0,0-14,16.17q-4.87,10.56-4.87,25v6.55q.12,14.06,5.26,24.45a36.48,36.48,0,0,0,14.58,15.87,43.06,43.06,0,0,0,22,5.46,63.62,63.62,0,0,0,21.73-3.54q9.81-3.54,15.17-10V173.24h-38v14.64h18.09v16.63q-4.77,4.77-16,4.77t-16.89-7.75Q102,193.78,102,178.6v-6.16Q102.07,157.41,107.36,149.78Z"/><polygon class="cls-4" points="194.02 182.11 232.18 182.11 232.18 166.55 194.02 166.55 194.02 143.56 238.67 143.56 238.67 127.46 174.15 127.46 174.15 223.92 238.81 223.92 238.81 207.95 194.02 207.95 194.02 182.11"/><path class="cls-4" d="M283,188.93H267.18V224.1H247.39V128h35.7q17,0,26.26,7.59t9.24,21.44q0,9.84-4.25,16.4t-12.91,10.46l20.79,39.27v.92H301Zm-15.78-16h16c5,0,8.82-1.26,11.55-3.79s4.1-6,4.1-10.46-1.29-8.1-3.87-10.69-6.52-3.9-11.84-3.9H267.18Z"/><path class="cls-4" d="M388.49,204.31H353.77l-6.6,19.79H326.12L361.89,128h18.35l36,96.08H395.15Zm-29.37-16h24l-12.08-36Z"/></g></svg>